<svg xmlns="http://www.w3.org/2000/svg" width="11" height="11" viewBox="0 0 11 11">
    <path fill="#393939" fill-rule="nonzero" d="M10.749 1.805a.845.845 0 0 0-.595-.234h-.846V.982a.913.913 0 0 0-.31-.693A1.06 1.06 0 0 0 8.25 0h-.423c-.29 0-.54.096-.747.289a.913.913 0 0 0-.31.693v.59H4.23v-.59A.913.913 0 0 0 3.92.29 1.059 1.059 0 0 0 3.173 0H2.75c-.29 0-.54.096-.747.289a.913.913 0 0 0-.31.693v.59H.845a.845.845 0 0 0-.595.233.73.73 0 0 0-.251.552v7.857a.73.73 0 0 0 .251.553.845.845 0 0 0 .595.233h9.308c.229 0 .427-.078.595-.233a.73.73 0 0 0 .251-.553V2.357a.73.73 0 0 0-.251-.552zM7.616.982c0-.057.02-.104.059-.141a.215.215 0 0 1 .152-.055h.423c.062 0 .112.018.152.055.04.037.06.084.06.141V2.75c0 .057-.02.104-.06.141a.215.215 0 0 1-.152.055h-.423a.215.215 0 0 1-.152-.055.184.184 0 0 1-.06-.141V.982zm-5.077 0c0-.057.02-.104.059-.141A.215.215 0 0 1 2.75.786h.423c.062 0 .113.018.152.055.04.037.06.084.06.141V2.75c0 .057-.02.104-.06.141a.215.215 0 0 1-.152.055H2.75a.215.215 0 0 1-.152-.055.184.184 0 0 1-.06-.141V.982zM.846 10.214L1 4.722h9l.154 5.492H.846z"/>
</svg>
