<?xml version="1.0" encoding="UTF-8"?>
<svg width="23px" height="23px" viewBox="0 0 23 23" version="1.1" xmlns="http://www.w3.org/2000/svg" xmlns:xlink="http://www.w3.org/1999/xlink">
    <!-- Generator: sketchtool 41.2 (35397) - http://www.bohemiancoding.com/sketch -->
    <title>292F6B18-E482-46A2-953A-E1E589B31A65</title>
    <desc>Created with sketchtool.</desc>
    <defs></defs>
    <g id="Page-1" stroke="none" stroke-width="1" fill="none" fill-rule="evenodd">
        <g id="Assets" transform="translate(-650.000000, -127.000000)" fill="#CEAE87">
            <g id="Group" transform="translate(650.000000, 127.000000)">
                <g id="Group-12">
                    <polygon id="Fill-15-Copy" points="1.92444335 6.99592855 0 11.1147789 1.92444335 15.2341367 4.64971663 15.9329609 6.57415998 14.5348051 4.97403233 11.1147789 6.57415998 7.69526021 4.64971663 6.29608939"></polygon>
                    <polygon id="Fill-17-Copy" points="20.8910366 6.99592855 22.8162023 11.1147789 20.8910366 15.2341367 18.167208 15.9329609 16.2420423 14.5348051 17.843964 11.1147789 16.2420423 7.69526021 18.167208 6.29608939"></polygon>
                    <polygon id="Fill-19-Copy" points="15.4995442 1.86995059 11.2714717 0 7.03526447 1.86995059 6.31634979 4.51811415 7.75417914 6.38806473 11.2714717 4.83265673 14.7806295 6.38806473 16.217442 4.51811415"></polygon>
                    <polygon id="Fill-22-Copy" points="15.6512659 20.7335233 11.4126884 22.6145251 7.16595578 20.7335233 6.44525489 18.070946 7.88665668 16.1899441 11.4126884 17.7546306 14.930565 16.1899441 16.3709474 18.070946"></polygon>
                    <path d="M11.5974007,9.37988827 C12.8138232,9.37988827 13.7928455,10.3335108 13.7928455,11.4964774 C13.7928455,12.6740377 12.8138232,13.6201117 11.5974007,13.6201117 C10.3956889,13.6201117 9.41007214,12.6740377 9.41007214,11.4964774 C9.41007214,10.3335108 10.3956889,9.37988827 11.5974007,9.37988827" id="Fill-24-Copy"></path>
                    <path d="M3.28457795,1.54189944 C4.17980784,1.54189944 4.89839371,2.26159574 4.89839371,3.14599865 C4.89839371,4.03807423 4.17980784,4.75418994 3.28457795,4.75418994 C2.39735459,4.75418994 1.67576627,4.03807423 1.67576627,3.14599865 C1.67576627,2.26159574 2.39735459,1.54189944 3.28457795,1.54189944" id="Fill-26-Copy"></path>
                    <path d="M19.6565262,1.54189944 C20.5507553,1.54189944 21.2693411,2.26159574 21.2693411,3.14599865 C21.2693411,4.03807423 20.5507553,4.75418994 19.6565262,4.75418994 C18.768302,4.75418994 18.0467137,4.03807423 18.0467137,3.14599865 C18.0467137,2.26159574 18.768302,1.54189944 19.6565262,1.54189944" id="Fill-28-Copy"></path>
                    <path d="M19.6565262,17.9888268 C20.5507553,17.9888268 21.2693411,18.7081261 21.2693411,19.5926699 C21.2693411,20.4848876 20.5507553,21.2011173 19.6565262,21.2011173 C18.768302,21.2011173 18.0467137,20.4848876 18.0467137,19.5926699 C18.0467137,18.7081261 18.768302,17.9888268 19.6565262,17.9888268" id="Fill-30-Copy"></path>
                    <path d="M3.28457795,17.9888268 C4.17980784,17.9888268 4.89839371,18.7081261 4.89839371,19.5926699 C4.89839371,20.4848876 4.17980784,21.2011173 3.28457795,21.2011173 C2.39735459,21.2011173 1.67576627,20.4848876 1.67576627,19.5926699 C1.67576627,18.7081261 2.39735459,17.9888268 3.28457795,17.9888268" id="Fill-32-Copy"></path>
                </g>
            </g>
        </g>
    </g>
</svg>