<svg xmlns="http://www.w3.org/2000/svg" width="108" height="108" viewBox="0 0 108 108">
    <path fill="#CEAF87" fill-rule="evenodd" d="M103.537 70.895l4.501 9.717-4.5 9.716-6.375 1.649-4.502-3.299 3.745-8.066-3.745-8.067 4.502-3.299 6.374 1.65zm-45.016 0l6.374-1.649 4.501 3.299-3.745 8.067 3.745 8.066-4.501 3.299-6.374-1.65-4.502-9.715 4.502-9.717zm12.564-12.277l9.935-4.399 9.952 4.4 1.689 6.228-3.376 4.398-8.265-3.66-8.247 3.66-3.376-4.398 1.688-6.229zm0 44.983l-1.688-6.229 3.376-4.398 8.247 3.66 8.265-3.66 3.376 4.398-1.69 6.23L81.02 108l-9.935-4.399zm9.953-27.535c2.83 0 5.152 2.269 5.152 5.035 0 2.802-2.321 5.052-5.152 5.052-2.867 0-5.17-2.25-5.17-5.052 0-2.766 2.303-5.035 5.17-5.035zm18.85-17.86c2.119 0 3.842 1.684 3.842 3.754 0 2.087-1.723 3.763-3.843 3.763-2.136 0-3.85-1.676-3.85-3.763 0-2.07 1.714-3.754 3.85-3.754zm-37.701 0c2.12 0 3.842 1.684 3.842 3.754 0 2.087-1.723 3.763-3.842 3.763-2.136 0-3.851-1.676-3.851-3.763 0-2.07 1.715-3.754 3.85-3.754zm0 38.3c2.12 0 3.842 1.682 3.842 3.753 0 2.087-1.723 3.763-3.842 3.763-2.136 0-3.851-1.676-3.851-3.763 0-2.07 1.715-3.754 3.85-3.754zm37.7 0c2.12 0 3.843 1.682 3.843 3.753 0 2.087-1.723 3.763-3.843 3.763-2.136 0-3.85-1.676-3.85-3.763 0-2.07 1.714-3.754 3.85-3.754zm3.65-79.831l4.501 9.716-4.5 9.717-6.375 1.65-4.502-3.3 3.745-8.067-3.745-8.067 4.502-3.298 6.374 1.649zm-45.016 0l6.374-1.65 4.501 3.299-3.745 8.067 3.745 8.067-4.501 3.3-6.374-1.65-4.502-9.717 4.502-9.716zM71.085 4.398L81.02 0l9.952 4.398 1.689 6.229-3.376 4.398-8.265-3.66-8.247 3.66-3.376-4.398 1.688-6.229zm0 44.982l-1.688-6.227 3.376-4.399 8.247 3.66 8.265-3.66 3.376 4.399-1.69 6.227-9.951 4.4-9.935-4.4zm9.953-27.534c2.83 0 5.152 2.268 5.152 5.035 0 2.802-2.321 5.051-5.152 5.051-2.867 0-5.17-2.25-5.17-5.051 0-2.767 2.303-5.035 5.17-5.035zm18.85-17.86c2.119 0 3.842 1.684 3.842 3.754 0 2.087-1.723 3.763-3.843 3.763-2.136 0-3.85-1.676-3.85-3.763 0-2.07 1.714-3.755 3.85-3.755zm-37.701 0c2.12 0 3.842 1.684 3.842 3.754 0 2.087-1.723 3.763-3.842 3.763-2.136 0-3.851-1.676-3.851-3.763 0-2.07 1.715-3.755 3.85-3.755zm0 38.3c2.12 0 3.842 1.682 3.842 3.753 0 2.087-1.723 3.763-3.842 3.763-2.136 0-3.851-1.676-3.851-3.763 0-2.07 1.715-3.754 3.85-3.754zm37.7 0c2.12 0 3.843 1.682 3.843 3.753 0 2.087-1.723 3.763-3.843 3.763-2.136 0-3.85-1.676-3.85-3.763 0-2.07 1.714-3.754 3.85-3.754zm-50.37 28.61l4.502 9.716-4.502 9.716-6.373 1.649-4.502-3.299 3.744-8.066-3.744-8.067 4.502-3.299 6.373 1.65zm-45.015 0l6.373-1.65 4.502 3.299-3.745 8.067 3.745 8.066-4.502 3.299-6.373-1.65L0 80.613l4.502-9.717zm12.563-12.278l9.936-4.399 9.951 4.4 1.69 6.228-3.376 4.398L27 65.585l-8.247 3.66-3.377-4.398 1.688-6.229zm0 44.983l-1.688-6.229 3.377-4.398 8.247 3.66 8.265-3.66 3.375 4.398-1.689 6.23L27.001 108l-9.936-4.399zm9.953-27.535c2.831 0 5.153 2.269 5.153 5.035 0 2.802-2.322 5.052-5.153 5.052-2.866 0-5.17-2.25-5.17-5.052 0-2.766 2.304-5.035 5.17-5.035zm18.85-17.86c2.12 0 3.842 1.684 3.842 3.754 0 2.087-1.722 3.763-3.842 3.763-2.136 0-3.851-1.676-3.851-3.763 0-2.07 1.715-3.754 3.851-3.754zm-37.7 0c2.12 0 3.842 1.684 3.842 3.754 0 2.087-1.723 3.763-3.842 3.763-2.137 0-3.851-1.676-3.851-3.763 0-2.07 1.714-3.754 3.85-3.754zm0 38.3c2.12 0 3.842 1.682 3.842 3.753 0 2.087-1.723 3.763-3.842 3.763-2.137 0-3.851-1.676-3.851-3.763 0-2.07 1.714-3.754 3.85-3.754zm37.7 0c2.12 0 3.842 1.682 3.842 3.753 0 2.087-1.722 3.763-3.842 3.763-2.136 0-3.851-1.676-3.851-3.763 0-2.07 1.715-3.754 3.851-3.754zm3.65-79.831l4.501 9.716-4.502 9.717-6.373 1.65-4.502-3.3 3.744-8.067-3.744-8.067 4.502-3.298 6.373 1.649zm-45.016 0l6.373-1.65 4.502 3.299-3.745 8.067 3.745 8.067-4.502 3.3-6.373-1.65L0 26.391l4.502-9.716zM17.065 4.398L27.001 0l9.951 4.398 1.69 6.229-3.376 4.398L27 11.365l-8.247 3.66-3.377-4.398 1.688-6.229zm0 44.982l-1.688-6.227 3.377-4.399 8.247 3.66 8.265-3.66 3.375 4.399-1.689 6.227-9.951 4.4-9.936-4.4zm9.953-27.534c2.831 0 5.153 2.268 5.153 5.035 0 2.802-2.322 5.051-5.153 5.051-2.866 0-5.17-2.25-5.17-5.051 0-2.767 2.304-5.035 5.17-5.035zm18.85-17.86c2.12 0 3.842 1.684 3.842 3.754 0 2.087-1.722 3.763-3.842 3.763-2.136 0-3.851-1.676-3.851-3.763 0-2.07 1.715-3.755 3.851-3.755zm-37.7 0c2.12 0 3.842 1.684 3.842 3.754 0 2.087-1.723 3.763-3.842 3.763-2.137 0-3.851-1.676-3.851-3.763 0-2.07 1.714-3.755 3.85-3.755zm0 38.3c2.12 0 3.842 1.682 3.842 3.753 0 2.087-1.723 3.763-3.842 3.763-2.137 0-3.851-1.676-3.851-3.763 0-2.07 1.714-3.754 3.85-3.754zm37.7 0c2.12 0 3.842 1.682 3.842 3.753 0 2.087-1.722 3.763-3.842 3.763-2.136 0-3.851-1.676-3.851-3.763 0-2.07 1.715-3.754 3.851-3.754z"/>
</svg>
