<?xml version="1.0" encoding="UTF-8"?>
<svg width="36px" height="36px" viewBox="0 0 36 36" version="1.1" xmlns="http://www.w3.org/2000/svg" xmlns:xlink="http://www.w3.org/1999/xlink">
    <!-- Generator: Sketch 44.1 (41455) - http://www.bohemiancoding.com/sketch -->
    <title>Combined Shape</title>
    <desc>Created with Sketch.</desc>
    <defs></defs>
    <g id="Page-1" stroke="none" stroke-width="1" fill="none" fill-rule="evenodd">
        <g id="KIOSK-RATING-Copy" transform="translate(-1199.000000, -1658.000000)" fill="#FFFFFF">
            <path d="M1217,1694 C1207.05887,1694 1199,1685.94113 1199,1676 C1199,1666.05887 1207.05887,1658 1217,1658 C1226.94113,1658 1235,1666.05887 1235,1676 C1235,1685.94113 1226.94113,1694 1217,1694 Z M1211,1675 C1212.65685,1675 1214,1673.65685 1214,1672 C1214,1670.34315 1212.65685,1669 1211,1669 C1209.34315,1669 1208,1670.34315 1208,1672 C1208,1673.65685 1209.34315,1675 1211,1675 Z M1223,1675 C1224.65685,1675 1226,1673.65685 1226,1672 C1226,1670.34315 1224.65685,1669 1223,1669 C1221.34315,1669 1220,1670.34315 1220,1672 C1220,1673.65685 1221.34315,1675 1223,1675 Z M1209.14698,1685.02647 C1209.30616,1685.84535 1210.09473,1686.37032 1210.91078,1686.2117 L1223.66165,1683.73318 C1224.48436,1683.57326 1225.01109,1682.78673 1224.85302,1681.97353 C1224.69384,1681.15465 1223.90527,1680.62968 1223.08922,1680.7883 L1210.33835,1683.26682 C1209.51564,1683.42674 1208.98891,1684.21327 1209.14698,1685.02647 Z" id="Combined-Shape"></path>
        </g>
    </g>
</svg>