<?xml version="1.0" encoding="UTF-8"?>
<svg width="36px" height="36px" viewBox="0 0 36 36" version="1.1" xmlns="http://www.w3.org/2000/svg" xmlns:xlink="http://www.w3.org/1999/xlink">
    <!-- Generator: Sketch 44.1 (41455) - http://www.bohemiancoding.com/sketch -->
    <title>Combined Shape</title>
    <desc>Created with Sketch.</desc>
    <defs></defs>
    <g id="Page-1" stroke="none" stroke-width="1" fill="none" fill-rule="evenodd">
        <g id="KIOSK-RATING-Copy" transform="translate(-1199.000000, -1609.000000)" fill="#FFFFFF">
            <path d="M1217,1645 C1207.05887,1645 1199,1636.94113 1199,1627 C1199,1617.05887 1207.05887,1609 1217,1609 C1226.94113,1609 1235,1617.05887 1235,1627 C1235,1636.94113 1226.94113,1645 1217,1645 Z M1211,1626 C1212.65685,1626 1214,1624.65685 1214,1623 C1214,1621.34315 1212.65685,1620 1211,1620 C1209.34315,1620 1208,1621.34315 1208,1623 C1208,1624.65685 1209.34315,1626 1211,1626 Z M1223,1626 C1224.65685,1626 1226,1624.65685 1226,1623 C1226,1621.34315 1224.65685,1620 1223,1620 C1221.34315,1620 1220,1621.34315 1220,1623 C1220,1624.65685 1221.34315,1626 1223,1626 Z M1217,1634.5 L1217,1634.5 C1213.68958,1634.5 1210.74371,1633.52517 1209.3052,1632.09866 C1208.71696,1631.51533 1207.76722,1631.51931 1207.1839,1632.10754 C1206.60057,1632.69578 1206.60455,1633.64552 1207.19278,1634.22885 C1209.25569,1636.27455 1212.95892,1637.5 1217,1637.5 C1221.46112,1637.5 1225.49384,1636.00844 1227.38089,1633.58411 C1227.88974,1632.93037 1227.77229,1631.98792 1227.11856,1631.47907 C1226.46483,1630.97022 1225.52237,1631.08767 1225.01352,1631.7414 C1223.77517,1633.33233 1220.61816,1634.5 1217,1634.5 Z" id="Combined-Shape"></path>
        </g>
    </g>
</svg>