<?xml version="1.0" encoding="UTF-8"?>
<svg width="36px" height="36px" viewBox="0 0 36 36" version="1.1" xmlns="http://www.w3.org/2000/svg" xmlns:xlink="http://www.w3.org/1999/xlink">
    <!-- Generator: Sketch 44.1 (41455) - http://www.bohemiancoding.com/sketch -->
    <title>Combined Shape</title>
    <desc>Created with Sketch.</desc>
    <defs></defs>
    <g id="Page-1" stroke="none" stroke-width="1" fill="none" fill-rule="evenodd">
        <g id="KIOSK-RATING-Copy" transform="translate(-1199.000000, -1554.000000)" fill="#FFFFFF">
            <path d="M1217,1590 C1207.05887,1590 1199,1581.94113 1199,1572 C1199,1562.05887 1207.05887,1554 1217,1554 C1226.94113,1554 1235,1562.05887 1235,1572 C1235,1581.94113 1226.94113,1590 1217,1590 Z M1207.02915,1577 C1207.00983,1577.16502 1207,1577.33176 1207,1577.5 C1207,1581.08985 1211.47715,1584 1217,1584 C1222.52285,1584 1227,1581.08985 1227,1577.5 C1227,1577.33176 1226.99017,1577.16502 1226.97085,1577 L1207.02915,1577 L1207.02915,1577 Z M1211,1571 C1212.65685,1571 1214,1569.65685 1214,1568 C1214,1566.34315 1212.65685,1565 1211,1565 C1209.34315,1565 1208,1566.34315 1208,1568 C1208,1569.65685 1209.34315,1571 1211,1571 Z M1223,1571 C1224.65685,1571 1226,1569.65685 1226,1568 C1226,1566.34315 1224.65685,1565 1223,1565 C1221.34315,1565 1220,1566.34315 1220,1568 C1220,1569.65685 1221.34315,1571 1223,1571 Z" id="Combined-Shape"></path>
        </g>
    </g>
</svg>