<?xml version="1.0" encoding="UTF-8"?>
<svg width="36px" height="36px" viewBox="0 0 36 36" version="1.1" xmlns="http://www.w3.org/2000/svg" xmlns:xlink="http://www.w3.org/1999/xlink">
    <!-- Generator: Sketch 44.1 (41455) - http://www.bohemiancoding.com/sketch -->
    <title>Combined Shape</title>
    <desc>Created with Sketch.</desc>
    <defs></defs>
    <g id="Page-1" stroke="none" stroke-width="1" fill="none" fill-rule="evenodd">
        <g id="KIOSK-RATING-Copy" transform="translate(-1199.000000, -1756.000000)" fill="#FFFFFF">
            <path d="M1209.01691,1767.74887 C1208.39335,1768.29861 1208,1769.10337 1208,1770 C1208,1771.65685 1209.34315,1773 1211,1773 C1212.65685,1773 1214,1771.65685 1214,1770 C1214,1769.70186 1213.95651,1769.41388 1213.87553,1769.14206 L1209.01691,1767.74887 Z M1220.18354,1768.96441 C1220.06482,1769.28719 1220,1769.63603 1220,1770 C1220,1771.65685 1221.34315,1773 1223,1773 C1224.65685,1773 1226,1771.65685 1226,1770 C1226,1769.03609 1225.5454,1768.17836 1224.83891,1767.6295 L1220.18354,1768.96441 Z M1217,1792 C1207.05887,1792 1199,1783.94113 1199,1774 C1199,1764.05887 1207.05887,1756 1217,1756 C1226.94113,1756 1235,1764.05887 1235,1774 C1235,1783.94113 1226.94113,1792 1217,1792 Z M1217,1781.16268 C1220.61816,1781.16268 1223.77517,1782.33035 1225.01352,1783.92128 C1225.52237,1784.57502 1226.46483,1784.69246 1227.11856,1784.18362 C1227.77229,1783.67477 1227.88974,1782.73231 1227.38089,1782.07858 C1225.49384,1779.65424 1221.46112,1778.16268 1217,1778.16268 C1212.95892,1778.16268 1209.25569,1779.38813 1207.19278,1781.43384 C1206.60455,1782.01717 1206.60057,1782.9669 1207.1839,1783.55514 C1207.76722,1784.14337 1208.71696,1784.14735 1209.3052,1783.56402 C1210.74371,1782.13751 1213.68958,1781.16268 1217,1781.16268 L1217,1781.16268 Z" id="Combined-Shape"></path>
        </g>
    </g>
</svg>