<?xml version="1.0" encoding="UTF-8"?>
<svg width="36px" height="36px" viewBox="0 0 36 36" version="1.1" xmlns="http://www.w3.org/2000/svg" xmlns:xlink="http://www.w3.org/1999/xlink">
    <!-- Generator: Sketch 44.1 (41455) - http://www.bohemiancoding.com/sketch -->
    <title>Combined Shape</title>
    <desc>Created with Sketch.</desc>
    <defs></defs>
    <g id="Page-1" stroke="none" stroke-width="1" fill="none" fill-rule="evenodd">
        <g id="KIOSK-RATING-Copy" transform="translate(-1199.000000, -1707.000000)" fill="#FFFFFF">
            <path d="M1208.00109,1720.9184 C1208.00036,1720.94551 1208,1720.97271 1208,1721 C1208,1722.65685 1209.34315,1724 1211,1724 C1212.65685,1724 1214,1722.65685 1214,1721 C1214,1719.34315 1212.65685,1718 1211,1718 C1210.79433,1718 1210.5935,1718.0207 1210.39947,1718.06012 L1208.00109,1720.9184 Z M1223.60053,1718.06012 C1223.4065,1718.0207 1223.20567,1718 1223,1718 C1221.34315,1718 1220,1719.34315 1220,1721 C1220,1722.65685 1221.34315,1724 1223,1724 C1224.65685,1724 1226,1722.65685 1226,1721 C1226,1720.97271 1225.99964,1720.94551 1225.99891,1720.9184 L1223.60053,1718.06012 Z M1217,1743 C1207.05887,1743 1199,1734.94113 1199,1725 C1199,1715.05887 1207.05887,1707 1217,1707 C1226.94113,1707 1235,1715.05887 1235,1725 C1235,1734.94113 1226.94113,1743 1217,1743 Z M1217,1732.16268 C1220.61816,1732.16268 1223.77517,1733.33035 1225.01352,1734.92128 C1225.52237,1735.57502 1226.46483,1735.69246 1227.11856,1735.18362 C1227.77229,1734.67477 1227.88974,1733.73231 1227.38089,1733.07858 C1225.49384,1730.65424 1221.46112,1729.16268 1217,1729.16268 C1212.95892,1729.16268 1209.25569,1730.38813 1207.19278,1732.43384 C1206.60455,1733.01717 1206.60057,1733.9669 1207.1839,1734.55514 C1207.76722,1735.14337 1208.71696,1735.14735 1209.3052,1734.56402 C1210.74371,1733.13751 1213.68958,1732.16268 1217,1732.16268 L1217,1732.16268 Z" id="Combined-Shape"></path>
        </g>
    </g>
</svg>