<?xml version="1.0" encoding="UTF-8"?>
<svg width="22px" height="23px" viewBox="0 0 22 23" version="1.1" xmlns="http://www.w3.org/2000/svg" xmlns:xlink="http://www.w3.org/1999/xlink">
    <!-- Generator: sketchtool 41 (35326) - http://www.bohemiancoding.com/sketch -->
    <title>FA104452-4ADA-47E5-991B-C11B7BEC4A69</title>
    <desc>Created with sketchtool.</desc>
    <defs></defs>
    <g id="Page-1" stroke="none" stroke-width="1" fill="none" fill-rule="evenodd">
        <g id="Header-&amp;-Footer" transform="translate(-1245.000000, -106.000000)">
            <g id="Group-18" transform="translate(1245.000000, 106.000000)">
                <rect id="Rectangle" x="0" y="0" width="22" height="23"></rect>
                <path d="M21.552464,21.5289094 L21.0107066,22.0471107 C20.7123463,22.3454705 20.3551063,22.4946482 19.9389714,22.4946482 C19.5228396,22.4946482 19.1655965,22.3454705 18.8672362,22.0471107 L14.6038544,17.7837274 C14.3526033,17.5324763 14.2112787,17.2380475 14.1798715,16.900429 C14.1484644,16.5628135 14.2191297,16.2526797 14.3918645,15.9700244 L12.0599572,13.614564 C11.4161273,14.0856561 10.7134238,14.4546757 9.95181937,14.7216289 C9.190218,14.9885821 8.39329603,15.1220587 7.56102633,15.1220587 C6.50891567,15.1220587 5.52355988,14.9218453 4.60492581,14.5214155 C3.68629173,14.1209858 2.88544244,13.5792344 2.20235561,12.8961464 C1.51926848,12.2130613 0.981443837,11.4122108 0.588865096,10.4935768 C0.196286416,9.5749427 0,8.59743794 0,7.56102934 C0,6.50891868 0.196286416,5.52355988 0.588865096,4.60492581 C0.981443837,3.68629173 1.51926848,2.88544425 2.20235561,2.20235621 C2.88544244,1.51927119 3.68629173,0.981445345 4.60492581,0.588866604 C5.52355988,0.196287863 6.50891567,0 7.56102633,0 C8.59743493,0 9.5749427,0.196287863 10.4935768,0.588866604 C11.4122108,0.981445345 12.2130583,1.51927119 12.8961464,2.20235621 C13.5792314,2.88544425 14.1209827,3.68629173 14.5214125,4.60492581 C14.9218423,5.52355988 15.1220557,6.50891868 15.1220557,7.56102934 C15.1220557,8.53462366 14.9453984,9.45324567 14.5920778,10.3169195 C14.2387573,11.1805903 13.7637427,11.9421826 13.1670251,12.6017146 L15.4518201,14.8865096 C15.7501805,14.7294799 16.0681653,14.6666687 16.4057808,14.6980728 C16.7433993,14.7294799 17.0299771,14.8629565 17.2655231,15.0985026 L21.552464,19.3854405 C21.8508213,19.6838002 22,20.0410415 22,20.4571751 C22,20.8733085 21.8508213,21.2305497 21.552464,21.5289094 Z M13.2141313,7.51392014 C13.2141313,6.74446472 13.0649556,6.01427954 12.7665953,5.32334349 C12.468235,4.63240442 12.0638857,4.0317673 11.5535324,3.52141403 C11.0431822,3.01106378 10.4425451,2.6067115 9.751606,2.30835419 C9.06066693,2.00999387 8.32263072,1.86081521 7.53747323,1.86081521 C6.75231575,1.86081521 6.01427954,2.00999387 5.32334047,2.30835419 C4.6324014,2.6067115 4.03176428,3.01106378 3.52141403,3.52141403 C3.01106106,4.0317673 2.6067109,4.63240442 2.30835118,5.32334349 C2.00999146,6.01427954 1.8608137,6.74446472 1.8608137,7.51392014 C1.8608137,8.29907762 2.00999146,9.03711383 2.30835118,9.7280529 C2.6067109,10.418992 3.01106106,11.0196291 3.52141403,11.5299793 C4.03176428,12.0403326 4.6324014,12.4446819 5.32334047,12.7430422 C6.01427954,13.0414025 6.75231575,13.1905782 7.53747323,13.1905782 C8.32263072,13.1905782 9.06066693,13.0414025 9.751606,12.7430422 C10.4425451,12.4446819 11.0431822,12.0403326 11.5535324,11.5299793 C12.0638857,11.0196291 12.468235,10.418992 12.7665953,9.7280529 C13.0649556,9.03711383 13.2141313,8.29907762 13.2141313,7.51392014 Z" id="Page-1-Copy-4" fill="#FFFFFF"></path>
            </g>
        </g>
    </g>
</svg>