<svg xmlns="http://www.w3.org/2000/svg" width="22" height="22" viewBox="0 0 22 22">
    <path fill="#1A1A1A" fill-rule="nonzero" d="M8.024.508c.857-.01 5.033-.01 5.843 0 1.237.014 1.852.049 2.44.135 1.42.21 2.544.728 3.358 1.55.117.118.239.252.341.375.749.9 1.206 2.014 1.38 3.358.05.385.071.704.071 1.059 0 .158.005.46.01.67.028 1.38.036 2.384.032 4.452a217.86 217.86 0 0 1-.014 2.432c-.03 1.037-.08 1.58-.205 2.21-.23 1.152-.7 2.112-1.38 2.819a5.79 5.79 0 0 1-2.432 1.508l-.168.054a8.583 8.583 0 0 1-1.995.323c-.697.039-1.267.045-4.183.047-3.49.002-4.283-.014-5.088-.1-1.279-.139-2.353-.523-3.169-1.135a5.482 5.482 0 0 1-1.707-2.163 6.442 6.442 0 0 1-.203-.523 8.41 8.41 0 0 1-.406-2.228C.504 14.524.5 14.17.5 11.009c0-3.167.004-3.545.049-4.36.038-.715.137-1.35.3-1.932.224-.806.57-1.484 1.053-2.065.177-.213.526-.554.77-.751a5.588 5.588 0 0 1 1.283-.767A7.273 7.273 0 0 1 5.774.635C6.297.558 6.954.52 8.024.508zm5.67 1.861c-.15-.007-5.212-.01-5.612-.002-.185.003-.544.02-.715.033a9.466 9.466 0 0 1-.375.017 6.012 6.012 0 0 0-.87.078c-.117.019-.126.02-.291.053-.063.013-.156.03-.207.037a3.523 3.523 0 0 0-1.223.428c-.366.208-.73.481-.921.693-.233.259-.418.54-.569.865-.217.47-.304.806-.381 1.465l-.03.27c-.015.12-.06.598-.075.776-.007.09-.018.306-.023.48-.005.175-.013.376-.018.446-.023.354-.026.708-.026 3.071 0 2.477.005 3.04.032 3.398.007.1.016.292.02.427.011.319.024.503.045.69.032.28.043.343.137.75l.075.335c.053.27.114.461.212.662.17.352.38.674.634.978.21.253.557.516.919.7.343.175.628.277.984.355.204.044.357.066.834.119.376.042.704.073 1.077.102.502.04.533.04 3.676.04 3.013 0 3.28-.003 3.57-.032.046-.004.203-.012.349-.016.145-.005.328-.013.406-.018.276-.02.576-.06.776-.106a2.09 2.09 0 0 1 .16-.03 4.04 4.04 0 0 0 .877-.223c.094-.037.33-.151.424-.204.286-.163.486-.3.736-.504.452-.37.855-1.055 1.036-1.757.024-.09.046-.192.073-.331.04-.205.14-1.123.167-1.527.006-.073.015-.299.023-.503.007-.204.018-.43.024-.503.008-.1.01-.849.01-3.075 0-2.72 0-2.962-.015-3.186a13.79 13.79 0 0 0-.024-.33 6.811 6.811 0 0 1-.012-.319 5.623 5.623 0 0 0-.125-1.103 2.606 2.606 0 0 1-.03-.172 4.402 4.402 0 0 0-.155-.665c-.14-.427-.425-.918-.781-1.346-.374-.448-1.066-.85-1.77-1.028-.248-.062-.444-.093-.93-.146l-.244-.027a29.778 29.778 0 0 0-.454-.044 10.3 10.3 0 0 0-.627-.035 41.386 41.386 0 0 1-.772-.036zM16.7 4.28c.092-.016.252-.016.35 0 .276.044.508.174.733.41.263.275.384.601.352.943-.029.3-.16.555-.412.797a1.276 1.276 0 0 1-.65.347 1.63 1.63 0 0 1-.414-.004 1.253 1.253 0 0 1-.58-.297 1.349 1.349 0 0 1-.434-.67c-.023-.088-.025-.101-.025-.276 0-.181 0-.186.029-.288.066-.241.208-.461.414-.644.2-.178.401-.278.637-.318zm-5.979 1.266a6.338 6.338 0 0 1 1.712.157 4.887 4.887 0 0 1 2.06 1.062c.12.102.43.408.575.567.839.918 1.3 2.012 1.383 3.28.012.18.012.596 0 .775-.081 1.249-.523 2.292-1.39 3.282a5.365 5.365 0 0 1-1.043.91 5.128 5.128 0 0 1-2.05.806 5.984 5.984 0 0 1-2.343-.086c-.12-.03-.36-.1-.424-.124l-.098-.036a5.612 5.612 0 0 1-.934-.454c-.759-.48-1.325-1.026-1.775-1.712a5.101 5.101 0 0 1-.782-2.034 5.954 5.954 0 0 1 .117-2.415c.133-.485.335-.946.6-1.371.63-1.013 1.531-1.793 2.555-2.212a5.44 5.44 0 0 1 1.837-.395zm.637 1.967a5.42 5.42 0 0 0-.728 0c-.83.08-1.56.437-2.152 1.054a3.376 3.376 0 0 0-.963 2.07 4.99 4.99 0 0 0 0 .776c.08.752.347 1.361.829 1.886.08.089.35.345.445.425a3.36 3.36 0 0 0 2.204.777c.254 0 .401-.01.625-.049a3.222 3.222 0 0 0 1.228-.465c.6-.379 1.129-.994 1.384-1.61l.045-.105a3.399 3.399 0 0 0 .224-1.335 3.372 3.372 0 0 0-.068-.63 3.453 3.453 0 0 0-.914-1.74c-.612-.631-1.319-.977-2.159-1.054z"/>
</svg>
