<svg xmlns="http://www.w3.org/2000/svg" width="163" height="72" viewBox="0 0 163 72">
    <g fill="none" fill-rule="evenodd">
        <path fill="#FFF" d="M51.115 75.236c-.011-.013-.02-.023.009-.002v.002h-.01zm7.514-5.538l.001 1.655H2.008v-1.655h56.621zm-7.95-1.96h-6.52V41.305s.603-12.48-13.99-11.908c0 0-13.662-.312-13.662 11.788v26.551h-6.155V25.62h40.326v42.118zM3.705 16.52a5.653 5.653 0 0 1-.105-.698c-.083-.88-1.115-3.01-1.233-3.874l-.04-.032c-.258.808-.143.015-.385.474-.834-.304-.878-.803-1.4-.962.346-.985.251-.317.576-1.452l.002-.008c.068-.257.094-.48.194-.759v-.002C1.6 7.982 2.517 7.113 4.278 7.35l.182.002c.07-.026.135-.05.183-.066.143-.047.288-.15.428-.196.06-.022.312-.16.336-.223.097-.273.135-.838.16-1.1a.76.76 0 0 0-.219-.268c-.167-.132-.13-.162-.234-.258h-.1l-.035.009-.187-.617.002-.187.06.016-.068-.095.006-.142c.064-.202.111-.312.203-.428l-.032.002C5.342 1.098 7.833.54 7.833.54l-.168 2.07c.247.028.485.08.65.273.195.103.33.231.349.43.007.075.18.456.217.504l.014.213c.06.052.066.348.023.465l-.035.109-.189.091c-.008.101.032.052.007.125l-.022.066c.047.025.066.023.047.082-.025.066-.123.162-.188.164-.008.066.01.045-.008.095-.007.02-.085.032-.149.2-.186.518-.438 1.06-.74 1.356l-.012.042v.073l.256.139.901.508c.402-.015.806-.026 1.056.002 1.646.471 1.08 1.536 1.339 2.396-.154.113-.72.2-.87.2-.078.11-.163.207-.233.33-.06.107.083.606.06.697l.019 3.286.068.502.206.624c.05.344.048.658.017.939H49.9a3.754 3.754 0 0 1 0-1.064l.207-.626.068-.504.02-3.284c-.027-.09.12-.59.058-.698-.07-.12-.152-.219-.232-.33-.151.004-.718-.085-.872-.198.263-.862-.303-1.924 1.344-2.397.247-.03.653-.015 1.051 0l.9-.51.262-.139V6.7l-.018-.043c-.298-.3-.554-.84-.739-1.357-.06-.17-.14-.178-.146-.198-.02-.052 0-.03-.01-.097-.068-.005-.161-.096-.187-.165-.02-.06 0-.056.048-.081l-.022-.068c-.026-.07.012-.02.008-.12l-.19-.094-.036-.109c-.044-.116-.037-.413.022-.463l.018-.216c.036-.046.205-.427.214-.5.018-.203.152-.329.351-.433.163-.195.401-.245.646-.272L52.499.415s2.488.556 2.872 3.262l-.033-.006c.09.115.136.226.202.429l.005.142-.066.091.058-.012.003.186-.19.616-.03-.005h-.102c-.104.093-.07.123-.235.257a.72.72 0 0 0-.22.265c.027.263.065.827.161 1.102.022.063.274.201.337.22.14.05.284.151.428.199.049.014.114.04.183.063h.183c1.76-.239 2.677.631 2.96 1.856v.003c.102.278.127.502.193.76l.003.007c.328 1.137.23.467.577 1.452-.521.158-.565.656-1.398.963-.243-.46-.128.336-.385-.472l-.04.03c-.12.863-1.152 2.992-1.237 3.87-.04.43-.096.654-.128.828h2.044v7.137H2.07V16.52h1.636zm44.085 5.446h2.296V18.21H47.79v3.756zm-4.198 0h2.293V18.21h-2.293v3.756zm-4.2 0h2.295V18.21h-2.295v3.756zm-4.198 0h2.293V18.21h-2.293v3.756zm-4.2 0h2.293V18.21h-2.293v3.756zm-4.198 0h2.293V18.21h-2.293v3.756zm-4.198 0h2.29V18.21H22.6v3.756zm-4.2 0h2.293V18.21H18.4v3.756zm-4.2 0h2.297V18.21h-2.297v3.756zm-4.198 0h2.294V18.21H10v3.756zm48.629 45.77h-5.942V25.619h5.942v42.118zm-50.282 0H2.044V25.619h6.304v42.118zm22.149-4.62a.06.06 0 0 0 .02.023c.006-.006.01-.013.017-.023.357-.504 1.318-.638 1.556-.662v5.282h-3.149v-5.282c.243.028 1.2.158 1.556.662zm.02-14.39c.366 1.086 1.568 1.362 1.568 2.389 0 1.022-1.202 1.3-1.568 2.386-.363-1.086-1.568-1.364-1.568-2.386 0-1.027 1.205-1.303 1.568-2.39zm.447 6.047c0 .291-.343.37-.447.68-.104-.31-.448-.389-.448-.68 0-.294.344-.372.448-.68.104.308.447.386.447.68zm-.447-6.546c-.428-1.271-1.84-1.597-1.84-2.798 0-1.203 1.412-1.525 1.84-2.801.426 1.276 1.837 1.598 1.837 2.8 0 1.202-1.41 1.528-1.837 2.799zm.835 12.714c0 .549-.641.695-.835 1.274-.196-.58-.836-.725-.836-1.274 0-.544.64-.693.836-1.27.194.577.835.726.835 1.27zm.172-3.368c0 .657-.773.836-1.007 1.533-.233-.697-1.007-.876-1.007-1.533 0-.657.774-.836 1.007-1.533.234.697 1.007.876 1.007 1.533zm-.05-4.226c.326-.518 1.024-.338 1.555-.79-.161.648.361 1.107.036 1.626-.326.522-1.022.341-1.551.795.158-.649-.364-1.11-.04-1.63zm2.377 1.11c.432-.084.64.326 1.127.368-.429.217-.451.663-.883.741-.43.08-.64-.32-1.126-.369.428-.213.45-.662.882-.74zm4.305-5.762c.753-.835 1.942-.318 3.04-.98-.499 1.116.282 2.082-.472 2.922-.754.838-1.941.32-3.037.987.5-1.115-.285-2.085.469-2.93zm-1.357 5.307c.625-.571.411-1.363 1.117-1.703.708-.344 1.298.258 2.17.108-.629.572-.415 1.362-1.119 1.703-.705.344-1.3-.256-2.168-.108zm-.913-5.382c.097-1.205-.973-1.907-.541-2.918.434-1.014 1.74-.856 2.56-1.798-.098 1.2.972 1.903.535 2.915-.433 1.01-1.737.853-2.554 1.801zm-1.935-3.225c-.088-.782-.863-1.12-.71-1.812.15-.697 1.006-.735 1.411-1.422.089.778.864 1.112.712 1.81-.15.694-1.005.732-1.413 1.424zm2.633-2.336c.033-.785-.684-1.22-.426-1.887.257-.67 1.112-.594 1.618-1.224-.033.782.684 1.214.425 1.884-.255.67-1.107.595-1.617 1.227zm-11.7-.057c-.567-.588-1.412-.442-1.73-1.086-.323-.643.345-1.135.233-1.91.568.585 1.41.44 1.734 1.084.322.643-.347 1.131-.236 1.912zM40.7 46.7c-.387.386-.943.108-1.493.398.277-.52-.072-1.008.318-1.394.384-.387.94-.108 1.485-.4-.27.525.077 1.01-.31 1.396zm-7.75 4.268c-.14-1.147-1.28-1.63-1.068-2.65.214-1.02 1.469-1.083 2.055-2.1.142 1.141 1.282 1.629 1.067 2.647-.21 1.021-1.467 1.085-2.054 2.103zm-.659-7.907c-.138-1.143-1.278-1.627-1.065-2.651.212-1.02 1.466-1.083 2.053-2.098.138 1.142 1.279 1.628 1.065 2.644-.21 1.024-1.463 1.086-2.053 2.105zm1.706 8.095c.648-.826 1.795-.408 2.778-1.089-.398 1.069.396 1.935-.25 2.76-.653.827-1.794.407-2.778 1.086.396-1.068-.4-1.932.25-2.757zm.891 4.633c.844-.286 1.017-1.1 1.832-1.14.812-.04 1.075.75 1.948.952-.845.286-1.016 1.096-1.83 1.138-.812.04-1.076-.755-1.95-.95zm-1.54.438c.656.588 1.548.38 1.945 1.047.393.673-.287 1.243-.108 2.07-.657-.592-1.548-.381-1.943-1.052-.394-.669.284-1.239.106-2.065zm-1.836.31c-.25-.337.071-.671-.076-1.097.383.275.839.118 1.09.452.25.33-.072.664.075 1.09-.382-.273-.84-.116-1.09-.446zm3.504 4.087c.226.546-.352.92-.308 1.569-.434-.51-1.138-.438-1.367-.984-.227-.55.351-.919.304-1.57.44.513 1.144.435 1.371.985zm2.161-2.65c.31.339-.002.733.205 1.184-.448-.266-.926-.05-1.234-.386-.313-.336 0-.733-.21-1.182.45.264.93.048 1.24.384zm-15.07-13.288c-.515-.483-1.234-.332-1.537-.875-.305-.542.252-.983.125-1.648.514.48 1.231.327 1.535.871.302.541-.252.987-.122 1.652zm17.137.084c.011-.675-.617-1.03-.41-1.61.206-.583.94-.533 1.365-1.087-.01.675.613 1.036.409 1.613-.205.58-.94.535-1.364 1.084zm-7.798 14.74c-.12-.432.352-.665.38-1.157.28.419.82.419.94.85.118.433-.356.665-.384 1.158-.28-.42-.817-.418-.936-.851zm.479 2.133c-.075-.274.225-.425.244-.74.18.267.524.267.6.544.079.276-.226.426-.244.74-.179-.268-.526-.268-.6-.544zm-3.918-9.084c.527.452 1.226.271 1.552.79.324.52-.197.982-.04 1.631-.529-.454-1.227-.273-1.552-.795-.324-.519.198-.979.04-1.626zm-1.068 3.009c-.433-.078-.456-.524-.886-.74.484-.044.696-.453 1.127-.368.433.076.457.526.88.738-.484.048-.692.45-1.121.37zm-7.103-7.852c1.099.663 2.286.146 3.04.98.755.844-.03 1.815.471 2.93-1.099-.668-2.286-.15-3.039-.987-.755-.84.026-1.806-.472-2.923zm3.28 4.584c.707.342.49 1.133 1.116 1.704-.867-.147-1.461.452-2.165.109-.707-.342-.493-1.132-1.12-1.705.87.15 1.462-.451 2.168-.108zm2.031-3.678c-.817-.948-2.123-.79-2.557-1.801-.434-1.012.637-1.715.538-2.915.818.942 2.126.784 2.558 1.798.434 1.011-.639 1.713-.539 2.918zm2.645-5.037c.152.69-.622 1.03-.711 1.812-.407-.691-1.264-.73-1.413-1.424-.15-.698.625-1.032.713-1.81.402.688 1.262.725 1.411 1.422zm-6.28 2.119c.388.386.038.874.311 1.395-.55-.29-1.103-.013-1.492-.399-.384-.387-.035-.871-.311-1.396.545.292 1.105.013 1.492.4zm4.518 3.162c-.214-1.02.927-1.507 1.064-2.648.59 1.017 1.844 1.081 2.055 2.1.213 1.02-.93 1.503-1.064 2.65-.591-1.018-1.844-1.082-2.055-2.102zm.659-7.91c-.213-1.016.929-1.502 1.064-2.644.586 1.015 1.844 1.079 2.055 2.098.213 1.024-.927 1.508-1.065 2.651-.588-1.019-1.843-1.081-2.054-2.105zm-2.18 11.871c-.649-.826.143-1.691-.248-2.76.98.68 2.127.263 2.775 1.089.65.825-.144 1.689.25 2.757-.984-.68-2.129-.26-2.777-1.086zm1.635 2.962c-.871.195-1.135.99-1.951.95-.811-.042-.985-.852-1.83-1.138.876-.202 1.138-.993 1.95-.952.814.04.986.854 1.831 1.14zm-.402 1.485c.396-.667 1.288-.459 1.944-1.047-.179.826.5 1.396.102 2.065-.391.67-1.282.46-1.94 1.052.18-.827-.5-1.397-.106-2.07zm3.78-.738c-.25.33-.709.173-1.091.447.147-.427-.175-.76.077-1.091.251-.334.704-.177 1.09-.452-.149.426.173.76-.076 1.096zm-2.135 3.104c-.048.65.534 1.019.303 1.569-.225.546-.93.474-1.367.984.046-.649-.534-1.023-.306-1.569.227-.55.932-.472 1.37-.984zm-3.47-1.858c.291-.32.745-.117 1.17-.368-.201.424.092.798-.199 1.117-.291.319-.742.116-1.166.364.195-.425-.1-.798.194-1.113zm5.29.57c.026.493.5.726.382 1.157-.12.434-.658.432-.937.851-.028-.491-.502-.725-.384-1.157.12-.43.66-.43.939-.85zm-.341 2.55c.015.316.319.467.243.74-.077.277-.42.277-.6.545-.018-.313-.323-.464-.246-.74.077-.276.422-.276.603-.544zM9.715 75.85h-.008v-.002c.03-.022.02-.014.008.002zM77.94 43.266c.065.125.172.23.36.23h.212c.19 0 .297-.105.359-.23l6.543-13.99c.126-.268-.041-.538-.36-.538h-2.153a.39.39 0 0 0-.357.226l-4.052 8.94h-.149l-4.052-8.94a.394.394 0 0 0-.359-.226H71.78c-.317 0-.487.27-.36.538l6.52 13.99zm6.616.022h1.837a.632.632 0 0 0 .611-.415l1.036-2.248h6.31l1.035 2.248c.146.292.295.415.61.415h1.838c.316 0 .486-.273.36-.54l-6.503-13.99c-.063-.125-.147-.228-.357-.228h-.213c-.19 0-.295.103-.36.228l-6.562 13.99c-.126.267.042.54.358.54zm4.517-4.968l2.067-4.573h.066l2.11 4.573h-4.243zm.633-10.996l3.694-1.602c.19-.084.274-.312.126-.563l-.59-1.08c-.105-.187-.317-.21-.549-.062l-3.463 2.038c-.104.062-.21.227-.124.393l.38.73c.084.186.23.27.526.146zm10.398 15.569c0 .208.17.395.402.395h1.94a.41.41 0 0 0 .399-.395v-5.304h2.346l2.808 5.512c.04.084.148.187.338.187h2.213c.36 0 .506-.335.36-.604l-2.89-5.28c1.834-.726 3.122-2.284 3.122-4.197 0-2.476-2.069-4.469-4.6-4.469h-6.036a.396.396 0 0 0-.402.393v13.762zm2.764-7.525v-4.14h3.442c1.119 0 2.09.915 2.09 2.02 0 1.164-.971 2.12-2.09 2.12h-3.442zm11.223 7.421c0 .27.213.499.508.499h1.855a.511.511 0 0 0 .507-.499v-6.34l5.509 6.694c.04.063.167.145.38.145h2.3c.42 0 .59-.454.38-.728l-5.912-6.963 5.51-6.112c.275-.312.062-.747-.338-.747h-2.11c-.191 0-.316.1-.4.206l-5.319 5.903v-5.613a.508.508 0 0 0-.507-.496h-1.855a.495.495 0 0 0-.508.496V42.79zm13.612.106c0 .206.167.393.4.393h8.587a.398.398 0 0 0 .402-.393V41.19a.4.4 0 0 0-.402-.396h-6.247v-3.64h5.213a.4.4 0 0 0 .403-.396v-1.724a.414.414 0 0 0-.403-.393h-5.213v-3.413h6.247a.4.4 0 0 0 .402-.394V29.13c0-.209-.17-.393-.402-.393h-8.586a.394.394 0 0 0-.401.393v13.764zm12.403-.002c0 .208.17.395.4.395h1.94a.412.412 0 0 0 .401-.395v-5.304h2.346l2.808 5.512c.04.084.146.187.337.187h2.214c.357 0 .506-.335.357-.604l-2.888-5.28c1.834-.726 3.12-2.284 3.12-4.197 0-2.476-2.065-4.469-4.599-4.469h-6.036c-.23 0-.4.184-.4.393v13.762zm2.764-7.525v-4.14h3.439c1.12 0 2.092.915 2.092 2.02 0 1.164-.972 2.12-2.092 2.12h-3.439zm13.3 7.525c0 .208.19.395.4.395h1.96a.413.413 0 0 0 .404-.395V31.228h3.229a.4.4 0 0 0 .4-.394V29.13c0-.209-.17-.393-.4-.393h-9.222c-.232 0-.4.184-.4.393v1.703c0 .206.168.394.4.394h3.229v11.665z"/>
        <path fill="#000" d="M71.554 63.805s1.734-.057 2.563-.057h1.679c3.414 0 5.055-1.54 5.055-3.511 0-2.323-2.301-2.973-3.092-3.142 1.34-.76 2.11-1.765 2.11-3.028 0-1.465-1.167-2.709-4.243-2.709h-4.26v.425c1.49.279 1.583.464 1.583 1.355v8.955c0 .669-.528 1.058-1.395 1.152v.56zm2.656-.688s.095-.463.095-1.024v-4.232l.17-.169h.585c.283 0 4.19-.597 4.19 2.825 0 1.262-.51 2.6-3.775 2.6H74.21zm.095-6.075v-4.87l.17-.186h1c2.037 0 2.85 1.34 2.85 2.398 0 1.076-.83 2.6-1.943 2.658h-2.077zm7.71 6.706h3.416l.074-.483-1.603-.225 1.378-3.583.225-.15h4.68l1.241 3.178c.21.555-.263.688-.808.702v.618s1.962-.057 2.583-.057h.83l.074-.467c-.546-.094-.904-.072-1.471-1.485l-4.205-10.531-.642.13L83.28 62.41c-.152.372-.454.763-1.265.835v.503zm6.113-9.715l1.772 4.569h-4.282l2.169-5.592c.076.26.189.652.341 1.023zm7.843 9.79s.47-.075 1.206-.075h8.164l.775-3.36h-.603c-.943 2.116-1.15 2.73-2.83 2.73h-5.15c.227-.259.548-.614.775-.91l6.562-8.938c.718-.965.945-1.318.945-1.318l-.077-.669s-.47.075-1.205.075h-7.696l-.454 2.97h.606c.696-1.915 1.111-2.342 2.734-2.342h4.546c-.228.28-.548.633-.755.91l-6.62 8.937c-.643.874-1.038 1.318-1.038 1.318l.115.672zm11.641-.075h3.413l.076-.483-1.604-.225 1.378-3.583.226-.15h4.677l1.245 3.178c.206.555-.264.688-.811.702v.618s1.961-.057 2.583-.057h.83l.077-.467c-.548-.094-.907-.072-1.471-1.485l-4.206-10.531-.642.13-4.507 11.015c-.15.372-.455.763-1.264.835v.503zm6.109-9.715l1.774 4.569h-4.28l2.168-5.592c.075.26.188.652.338 1.023zm-1.509-4.31l.208.557 3.679-1.186v-.43l-.548-.855h-.094l-3.245 1.915zm9.485 14.082l4.278-.113.076-.483-1.698-.169s.094-.408.094-.947v-3.754l.169-.164h1.566l2.416 3.474a15.103 15.103 0 0 1 1.206 2.043l.075.056h2.416l.074-.56-.21-.015c-.528-.039-.922-.095-1.751-1.265l-2.714-3.885v-.203c.886-.423 2.544-1.65 2.544-3.473 0-1.637-1.283-2.989-4.696-2.989h-4.035v.425c1.492.279 1.583.464 1.583 1.355v8.955c0 .63-.545 1.058-1.393 1.152v.56zm2.75-6.28v-5.353l.169-.186h.776c2.508 0 3.358 1.432 3.358 2.809 0 1.839-1.417 2.73-2.662 2.73h-1.64z"/>
    </g>
</svg>
