<svg xmlns="http://www.w3.org/2000/svg" width="33" height="32" viewBox="0 0 33 32">
    <path fill="#CEAF87" fill-rule="evenodd" d="M27.193 27.445l.982 1.334-.49 1.888L24.792 32l-2.89-1.333-.49-1.888.98-1.334 2.4 1.11 2.4-1.11zm-16 0l.982 1.334-.49 1.888L8.792 32l-2.89-1.333-.49-1.888.98-1.334 2.4 1.11 2.4-1.11zm19.19.952a1.126 1.126 0 1 1-.003 2.252 1.126 1.126 0 0 1 .003-2.252zm-11.472 0c.62 0 1.124.504 1.124 1.125a1.125 1.125 0 1 1-2.252 0c0-.62.502-1.125 1.128-1.125zm-16 0c.62 0 1.124.504 1.124 1.125a1.125 1.125 0 1 1-2.252 0c0-.62.502-1.125 1.128-1.125zm11.472 0a1.126 1.126 0 1 1-.003 2.252 1.126 1.126 0 0 1 .003-2.252zm15.1-7.842l1.854.5 1.308 2.948-1.308 2.942-1.853.5-1.31-1 1.09-2.442-1.09-2.448 1.31-1zm-9.676 0l1.309 1-1.09 2.448 1.09 2.442-1.31 1-1.852-.5-1.309-2.942 1.309-2.948 1.853-.5zm-16 0l1.309 1-1.09 2.448 1.09 2.442-1.31 1-1.852-.5-1.309-2.942 1.309-2.948 1.853-.5zm9.677 0l1.853.5 1.308 2.948-1.308 2.942-1.853.5-1.31-1 1.09-2.442-1.09-2.448 1.31-1zm11.164 1.933a1.512 1.512 0 1 1 0 3.025 1.512 1.512 0 1 1 0-3.025zm-16 0a1.512 1.512 0 1 1 0 3.025 1.512 1.512 0 1 1 0-3.025zM24.793 16l2.891 1.333.491 1.888-.982 1.334-2.4-1.11-2.4 1.11-.98-1.334.49-1.888L24.793 16zm-16 0l2.891 1.333.491 1.888-.982 1.334-2.4-1.11-2.4 1.11-.98-1.334.49-1.888L8.793 16zm-5.882 1.35a1.126 1.126 0 1 1-.004 2.252 1.126 1.126 0 0 1 .004-2.253zm16 0a1.126 1.126 0 1 1-.004 2.252 1.126 1.126 0 0 1 .004-2.253zm11.472 0a1.126 1.126 0 1 1-.004 2.252 1.126 1.126 0 0 1 .004-2.253zm-16 0a1.126 1.126 0 1 1-.004 2.252 1.126 1.126 0 0 1 .004-2.253zm-3.19-5.905l.982 1.334-.49 1.888L8.792 16l-2.89-1.333-.49-1.888.98-1.334 2.4 1.11 2.4-1.11zm16 0l.982 1.334-.49 1.888L24.792 16l-2.89-1.333-.49-1.888.98-1.334 2.4 1.11 2.4-1.11zm-12.81.952a1.126 1.126 0 1 1-.003 2.252 1.126 1.126 0 0 1 .003-2.252zm-11.472 0c.62 0 1.124.504 1.124 1.125a1.125 1.125 0 1 1-2.252 0c0-.62.502-1.125 1.128-1.125zm27.472 0a1.126 1.126 0 1 1-.003 2.252 1.126 1.126 0 0 1 .003-2.252zm-11.472 0c.62 0 1.124.504 1.124 1.125a1.125 1.125 0 1 1-2.252 0c0-.62.502-1.125 1.128-1.125zm.896-7.842l1.309 1-1.09 2.448 1.09 2.442-1.31 1-1.852-.5-1.309-2.942 1.309-2.948 1.853-.5zm9.677 0l1.853.5 1.308 2.948-1.308 2.942-1.853.5-1.31-1 1.09-2.442-1.09-2.448 1.31-1zm-16 0l1.853.5 1.308 2.948-1.308 2.942-1.853.5-1.31-1 1.09-2.442-1.09-2.448 1.31-1zm-9.677 0l1.309 1-1.09 2.448 1.09 2.442-1.31 1-1.852-.5L.645 8.003l1.309-2.948 1.853-.5zm20.84 1.933a1.512 1.512 0 1 1 0 3.025 1.512 1.512 0 1 1 0-3.025zm-16 0a1.512 1.512 0 1 1 0 3.025 1.512 1.512 0 1 1 0-3.025zM24.794 0l2.891 1.333.491 1.888-.982 1.334-2.4-1.11-2.4 1.11-.98-1.334.49-1.888L24.793 0zm-16 0l2.891 1.333.491 1.888-.982 1.334-2.4-1.11-2.4 1.11-.98-1.334.49-1.888L8.793 0zm21.59 1.35a1.126 1.126 0 1 1-.004 2.252 1.126 1.126 0 0 1 .004-2.253zm-11.472 0a1.126 1.126 0 1 1-.004 2.252 1.126 1.126 0 0 1 .004-2.253zm-4.528 0a1.126 1.126 0 1 1-.004 2.252 1.126 1.126 0 0 1 .004-2.253zm-11.472 0a1.126 1.126 0 1 1-.004 2.252 1.126 1.126 0 0 1 .004-2.253z"/>
</svg>
