<?xml version="1.0" encoding="UTF-8"?>
<svg width="65px" height="64px" viewBox="0 0 65 64" version="1.1" xmlns="http://www.w3.org/2000/svg" xmlns:xlink="http://www.w3.org/1999/xlink">
    <!-- Generator: sketchtool 41.2 (35397) - http://www.bohemiancoding.com/sketch -->
    <title>61FAEC96-DA7F-43A8-A90F-5A516E494AA6</title>
    <desc>Created with sketchtool.</desc>
    <defs></defs>
    <g id="Page-1" stroke="none" stroke-width="1" fill="none" fill-rule="evenodd">
        <g id="Assets" transform="translate(-348.000000, -533.000000)" fill="#FFFFFF">
            <path d="M380.5,533 C389.527828,533 397.20136,536.111083 403.520833,542.333333 C409.840307,548.555584 413,556.111061 413,565 C413,573.888939 409.840307,581.444416 403.520833,587.666667 C397.20136,593.888919 389.527828,597 380.5,597 C371.472172,597 363.79864,593.888919 357.479167,587.666667 C351.159691,581.444416 348,573.888939 348,565 C348,556.111061 351.159691,548.555584 357.479167,542.333333 C363.79864,536.111083 371.472172,533 380.5,533 L380.5,533 Z M380.5,588.5 C387.045175,588.5 392.659268,586.194464 397.342453,581.583339 C402.025627,576.972203 404.367188,571.44448 404.367188,565 C404.367188,558.55552 402.025627,553.027797 397.342453,548.416661 C392.659268,543.805536 387.045175,541.5 380.5,541.5 C373.954825,541.5 368.340732,543.805536 363.657547,548.416661 C358.974373,553.027797 356.632812,558.55552 356.632812,565 C356.632812,571.44448 358.974373,576.972203 363.657547,581.583339 C368.340732,586.194464 373.954825,588.5 380.5,588.5 L380.5,588.5 Z M394.71875,564.166667 C394.944441,564.277781 395.057292,564.555552 395.057292,565 C395.057292,565.444448 394.944441,565.722219 394.71875,565.833333 L374.40625,577.333333 L373.898438,577.333333 C373.334194,577.333333 373.052083,577.111115 373.052083,576.666667 L373.052083,553.666667 L373.052083,553.5 C373.052083,552.833333 373.334194,552.5 373.898438,552.5 C374.011288,552.5 374.180559,552.555552 374.40625,552.666667 L394.71875,564.166667 Z" id="Page-1"></path>
        </g>
    </g>
</svg>