<?xml version="1.0" encoding="UTF-8" standalone="no"?>
<svg width="670px" height="680px" viewBox="0 0 670 680" version="1.1" xmlns="http://www.w3.org/2000/svg" xmlns:xlink="http://www.w3.org/1999/xlink">
    <!-- Generator: Sketch 41.2 (35397) - http://www.bohemiancoding.com/sketch -->
    <title>Page 1 Copy</title>
    <desc>Created with Sketch.</desc>
    <defs>
        <polygon id="path-1" points="0.156322911 194.868438 148.165756 194.868438 148.165756 0.621510782 0.156322911 0.621510782"></polygon>
    </defs>
    <g id="Page-1" stroke="none" stroke-width="1" fill="none" fill-rule="evenodd">
        <g id="Paragraphs-2" transform="translate(-720.000000, -2605.000000)">
            <g id="Page-1-Copy" style="mix-blend-mode: multiply;" transform="translate(720.000000, 2605.000000)">
                <polygon id="Fill-1" fill="#D7E1D6" points="234.086775 47.1519276 175.286387 20.5039052 116.485998 47.1519276 106.505089 84.8867688 126.471214 111.534791 175.286387 89.3654643 224.105866 111.534791 244.071991 84.8867688"></polygon>
                <polygon id="Fill-2" fill="#D7E1D6" points="234.086775 313.635169 175.286387 340.283191 116.485998 313.635169 106.505089 275.900328 126.471214 249.252305 175.286387 271.425943 224.105866 249.252305 244.071991 275.900328"></polygon>
                <polygon id="Fill-3" fill="#D7E1D6" points="308.379964 239.259513 335.002899 180.445922 308.379964 121.533188 270.686745 111.536946 244.068115 131.520808 266.217295 180.445922 244.068115 229.263271 270.686745 249.251443"></polygon>
                <polygon id="Fill-4" fill="#D7E1D6" points="36.1642196 239.259513 9.54128449 180.445922 36.1642196 121.533188 73.853133 111.536946 100.476068 131.520808 78.3268884 180.445922 100.476068 229.263271 73.853133 249.251443"></polygon>
                <g id="Group-15" transform="translate(33.559164, 45.528206)" fill="#D7E1D6">
                    <path d="M169.232853,134.811675 C169.232853,151.782439 155.505873,165.416813 138.764813,165.416813 C121.812768,165.416813 108.193433,151.782439 108.193433,134.811675 C108.193433,118.05213 121.812768,104.314302 138.764813,104.314302 C155.505873,104.314302 169.232853,118.05213 169.232853,134.811675" id="Fill-5"></path>
                    <path d="M277.316888,23.2262066 C277.316888,35.8734563 267.124993,46.0248786 254.599339,46.0248786 C241.96604,46.0248786 231.825815,35.8734563 231.825815,23.2262066 C231.825815,10.6824109 241.96604,0.479261552 254.599339,0.479261552 C267.124993,0.479261552 277.316888,10.6824109 277.316888,23.2262066" id="Fill-7"></path>
                    <path d="M277.316888,246.404472 C277.316888,259.051722 267.124993,269.203144 254.599339,269.203144 C241.96604,269.203144 231.825815,259.051722 231.825815,246.404472 C231.825815,233.856366 241.96604,223.661837 254.599339,223.661837 C267.124993,223.661837 277.316888,233.856366 277.316888,246.404472" id="Fill-9"></path>
                    <path d="M45.5457875,246.404472 C45.5457875,259.051722 35.3581982,269.203144 22.8282384,269.203144 C10.1949388,269.203144 0.0547135989,259.051722 0.0547135989,246.404472 C0.0547135989,233.856366 10.1949388,223.661837 22.8282384,223.661837 C35.3581982,223.661837 45.5457875,233.856366 45.5457875,246.404472" id="Fill-11"></path>
                    <path d="M45.5457875,23.2262066 C45.5457875,35.8734563 35.3581982,46.0248786 22.8282384,46.0248786 C10.1949388,46.0248786 0.0547135989,35.8734563 0.0547135989,23.2262066 C0.0547135989,10.6824109 10.1949388,0.479261552 22.8282384,0.479261552 C35.3581982,0.479261552 45.5457875,10.6824109 45.5457875,23.2262066" id="Fill-13"></path>
                </g>
                <polygon id="Fill-16" fill="#D7E1D6" points="559.542792 47.1519276 500.742404 20.5039052 441.942015 47.1519276 431.965411 84.8867688 451.927231 111.534791 500.742404 89.3654643 549.561883 111.534791 569.528008 84.8867688"></polygon>
                <polygon id="Fill-17" fill="#D7E1D6" points="559.542792 313.635169 500.742404 340.283191 441.942015 313.635169 431.965411 275.900328 451.927231 249.252305 500.742404 271.425943 549.561883 249.252305 569.528008 275.900328"></polygon>
                <polygon id="Fill-18" fill="#D7E1D6" points="633.836411 239.259513 660.459347 180.445922 633.836411 121.533188 596.143192 111.536946 569.524563 131.520808 591.678049 180.445922 569.524563 229.263271 596.143192 249.251443"></polygon>
                <polygon id="Fill-19" fill="#D7E1D6" points="361.620667 239.259513 335.002038 180.445922 361.620667 121.533188 399.309581 111.536946 425.932516 131.520808 403.783336 180.445922 425.932516 229.263271 399.309581 249.251443"></polygon>
                <g id="Group-30" transform="translate(358.438850, 45.528206)" fill="#D7E1D6">
                    <path d="M169.811336,134.811675 C169.811336,151.782439 156.08005,165.416813 139.338991,165.416813 C122.391251,165.416813 108.771917,151.782439 108.771917,134.811675 C108.771917,118.05213 122.391251,104.314302 139.338991,104.314302 C156.08005,104.314302 169.811336,118.05213 169.811336,134.811675" id="Fill-20"></path>
                    <path d="M277.89408,23.2262066 C277.89408,35.8734563 267.702185,46.0248786 255.176531,46.0248786 C242.543231,46.0248786 232.403006,35.8734563 232.403006,23.2262066 C232.403006,10.6824109 242.543231,0.479261552 255.176531,0.479261552 C267.702185,0.479261552 277.89408,10.6824109 277.89408,23.2262066" id="Fill-22"></path>
                    <path d="M277.89408,246.404472 C277.89408,259.051722 267.702185,269.203144 255.176531,269.203144 C242.543231,269.203144 232.403006,259.051722 232.403006,246.404472 C232.403006,233.856366 242.543231,223.661837 255.176531,223.661837 C267.702185,223.661837 277.89408,233.856366 277.89408,246.404472" id="Fill-24"></path>
                    <path d="M46.1229792,246.404472 C46.1229792,259.051722 35.9353899,269.203144 23.4054302,269.203144 C10.7721305,269.203144 0.63190534,259.051722 0.63190534,246.404472 C0.63190534,233.856366 10.7721305,223.661837 23.4054302,223.661837 C35.9353899,223.661837 46.1229792,233.856366 46.1229792,246.404472" id="Fill-26"></path>
                    <path d="M46.1229792,23.2262066 C46.1229792,35.8734563 35.9353899,46.0248786 23.4054302,46.0248786 C10.7721305,46.0248786 0.63190534,35.8734563 0.63190534,23.2262066 C0.63190534,10.6824109 10.7721305,0.479261552 23.4054302,0.479261552 C35.9353899,0.479261552 46.1229792,10.6824109 46.1229792,23.2262066" id="Fill-28"></path>
                </g>
                <polygon id="Fill-31" fill="#D7E1D6" points="234.086775 366.932938 175.286387 340.284916 116.485998 366.932938 106.505089 404.667779 126.471214 431.315802 175.286387 409.146475 224.105866 431.315802 244.071991 404.667779"></polygon>
                <polygon id="Fill-32" fill="#D7E1D6" points="234.086775 633.415748 175.286387 660.063771 116.485998 633.415748 106.505089 595.680907 126.471214 569.032885 175.286387 591.206522 224.105866 569.032885 244.071991 595.680907"></polygon>
                <polygon id="Fill-33" fill="#D7E1D6" points="308.379964 559.040092 335.002899 500.226501 308.379964 441.313767 270.686745 431.317526 244.068115 451.301387 266.217295 500.226501 244.068115 549.043851 270.686745 569.032023"></polygon>
                <polygon id="Fill-34" fill="#D7E1D6" points="36.1642196 559.040092 9.54128449 500.226501 36.1642196 441.313767 73.853133 431.317526 100.476068 451.301387 78.3268884 500.226501 100.476068 549.043851 73.853133 569.032023"></polygon>
                <polygon id="Fill-46" fill="#D7E1D6" points="559.542792 366.932938 500.742404 340.284916 441.942015 366.932938 431.965411 404.667779 451.927231 431.315802 500.742404 409.146475 549.561883 431.315802 569.528008 404.667779"></polygon>
                <polygon id="Fill-47" fill="#D7E1D6" points="559.542792 633.415748 500.742404 660.063771 441.942015 633.415748 431.965411 595.680907 451.927231 569.032885 500.742404 591.206522 549.561883 569.032885 569.528008 595.680907"></polygon>
                <polygon id="Fill-48" fill="#D7E1D6" points="633.836411 559.040092 660.459347 500.226501 633.836411 441.313767 596.143192 431.317526 569.524563 451.301387 591.678049 500.226501 569.524563 549.043851 596.143192 569.032023"></polygon>
                <polygon id="Fill-49" fill="#D7E1D6" points="361.620667 559.040092 335.002038 500.226501 361.620667 441.313767 399.309581 431.317526 425.932516 451.301387 403.783336 500.226501 425.932516 549.043851 399.309581 569.032023"></polygon>
                <g id="Group-112" transform="translate(0.000000, 0.059130)">
                    <path d="M528.250187,500.061762 C528.250187,517.032526 514.518901,530.666899 497.777841,530.666899 C480.830102,530.666899 467.210767,517.032526 467.210767,500.061762 C467.210767,483.302216 480.830102,469.564389 497.777841,469.564389 C514.518901,469.564389 528.250187,483.302216 528.250187,500.061762" id="Fill-50" fill="#D7E1D6"></path>
                    <path d="M636.332931,388.476293 C636.332931,401.123543 626.141035,411.274965 613.615382,411.274965 C600.982082,411.274965 590.841857,401.123543 590.841857,388.476293 C590.841857,375.932498 600.982082,365.729348 613.615382,365.729348 C626.141035,365.729348 636.332931,375.932498 636.332931,388.476293" id="Fill-52" fill="#D7E1D6"></path>
                    <path d="M636.332931,611.654128 C636.332931,624.301377 626.141035,634.4528 613.615382,634.4528 C600.982082,634.4528 590.841857,624.301377 590.841857,611.654128 C590.841857,599.106021 600.982082,588.911493 613.615382,588.911493 C626.141035,588.911493 636.332931,599.106021 636.332931,611.654128" id="Fill-54" fill="#D7E1D6"></path>
                    <path d="M404.56183,611.654128 C404.56183,624.301377 394.37424,634.4528 381.844281,634.4528 C369.210981,634.4528 359.070756,624.301377 359.070756,611.654128 C359.070756,599.106021 369.210981,588.911493 381.844281,588.911493 C394.37424,588.911493 404.56183,599.106021 404.56183,611.654128" id="Fill-56" fill="#D7E1D6"></path>
                    <path d="M404.56183,388.476293 C404.56183,401.123543 394.37424,411.274965 381.844281,411.274965 C369.210981,411.274965 359.070756,401.123543 359.070756,388.476293 C359.070756,375.932498 369.210981,365.729348 381.844281,365.729348 C394.37424,365.729348 404.56183,375.932498 404.56183,388.476293" id="Fill-58" fill="#D7E1D6"></path>
                    <g id="Group-111" opacity="0.600000024">
                        <path d="M398.21547,92.3254665 C398.21547,92.3254665 396.019497,79.6264898 378.456024,86.3509988 C378.456024,86.3509988 427.486489,57.9571904 401.871118,34.0550092 L369.715193,54.2242258 L369.715193,11.6399791 C369.715193,11.6399791 357.232598,10.1398963 349.180699,22.0974528 C349.180699,22.0974528 346.252736,5.66551141 335.272874,0.432463988 C324.297319,5.66551141 321.369356,22.0974528 321.369356,22.0974528 C313.317457,10.1398963 300.834861,11.6399791 300.834861,11.6399791 L300.834861,54.2242258 L268.678937,34.0550092 C243.063566,57.9571904 292.09403,86.3509988 292.09403,86.3509988 C274.530557,79.6264898 272.334585,92.3254665 272.334585,92.3254665 C312.585466,107.265946 304.537873,137.155527 304.537873,137.155527 C284.072273,116.443177 268.678937,114.740497 268.678937,114.740497 L307.465837,194.680253 L318.441392,194.680253 L335.272874,71.4062085 L352.108662,194.680253 L363.084218,194.680253 L401.871118,114.740497 C401.871118,114.740497 386.477782,116.443177 366.012181,137.155527 C366.012181,137.155527 357.964589,107.265946 398.21547,92.3254665" id="Fill-60" fill="#B3884D"></path>
                        <path d="M428.010078,117.646692 L428.040219,117.586343 C428.031607,117.590654 428.018689,117.594965 428.005772,117.599275 L428.005772,117.586343 L428.001466,117.603586 C402.355954,125.013477 404.048144,163.735442 404.082591,164.38634 L404.048144,164.446688 C404.061062,164.442378 404.069674,164.438067 404.082591,164.433756 L404.082591,164.446688 L404.091203,164.429446 C429.736715,157.023865 428.040219,118.29759 428.010078,117.646692" id="Fill-62" fill="#B3884D"></path>
                        <path d="M434.878304,105.457657 C434.878304,105.457657 423.454942,87.5385644 430.141893,63.5587927 C435.373474,44.7948261 433.207643,41.5058515 433.207643,41.5058515 L447.692449,68.7961507 C447.692449,68.7961507 464.687552,59.4249439 479.172358,65.7615005 L434.878304,105.457657 Z" id="Fill-64" fill="#B3884D"></path>
                        <path d="M245.978181,117.646692 L245.94804,117.586343 C245.956652,117.590654 245.969569,117.594965 245.982487,117.599275 L245.982487,117.586343 L245.991098,117.603586 C271.632305,125.013477 269.935808,163.735442 269.905667,164.38634 L269.935808,164.446688 C269.927197,164.442378 269.918585,164.438067 269.905667,164.433756 L269.905667,164.446688 L269.897056,164.429446 C244.251544,157.023865 245.94804,118.29759 245.978181,117.646692" id="Fill-66" fill="#B3884D"></path>
                        <path d="M239.109524,105.457657 C239.109524,105.457657 250.532886,87.5385644 243.845935,63.5587927 C238.614354,44.7948261 240.780185,41.5058515 240.780185,41.5058515 L226.295379,68.7961507 C226.295379,68.7961507 209.300276,59.4249439 194.81547,65.7615005 L239.109524,105.457657 Z" id="Fill-68" fill="#B3884D"></path>
                        <path d="M550.503137,208.552571 C550.503137,208.552571 558.021113,198.034749 540.7978,190.49554 C540.7978,190.49554 595.75739,204.729084 594.728297,169.903886 L557.577612,161.670673 L588.006899,131.552631 C588.006899,131.552631 580.247797,121.758987 566.01273,124.58673 C566.01273,124.58673 575.683619,110.913561 571.661976,99.5336229 C560.156803,95.5506445 546.348013,105.120138 546.348013,105.120138 C549.198471,91.0331538 539.299372,83.356006 539.299372,83.356006 L508.870085,113.474047 L500.542613,76.7090874 C465.35108,75.6917899 479.732546,130.074102 479.732546,130.074102 C472.115536,113.030057 461.488752,120.470123 461.488752,120.470123 C479.276128,159.200709 452.226916,174.701564 452.226916,174.701564 C452.554159,145.74307 442.887575,133.76396 442.887575,133.76396 L413.190279,217.42806 L420.953687,225.109519 L520.943627,149.717427 L444.756304,248.662543 L452.519712,256.344001 L537.068953,226.963069 C537.068953,226.963069 524.96527,217.389265 495.694251,217.712559 C495.694251,217.712559 511.358853,190.948151 550.503137,208.552571" id="Fill-70" fill="#B3884D"></path>
                        <path d="M553.471575,247.299537 L553.540468,247.282294 C553.52755,247.277984 553.514633,247.269362 553.506021,247.269362 L553.514633,247.256431 L553.49741,247.265052 C530.069399,234.557454 503.597168,263.127996 503.153667,263.610782 L503.08908,263.632335 C503.097692,263.636645 503.106303,263.636645 503.119221,263.645266 L503.110609,263.653887 L503.132138,263.649577 C526.555843,276.352864 553.03238,247.786632 553.471575,247.299537" id="Fill-72" fill="#B3884D"></path>
                        <path d="M567.038808,243.487257 C567.038808,243.487257 571.766608,222.826634 593.635909,210.545784 C610.738658,200.941806 611.556765,197.096766 611.556765,197.096766 L602.299235,226.529425 C602.299235,226.529425 621.012364,231.792646 626.726198,246.409832 L567.038808,243.487257 Z" id="Fill-74" fill="#B3884D"></path>
                        <path d="M577.135114,399.129037 C577.135114,399.129037 589.966482,396.947882 583.176191,379.571923 C583.176191,379.571923 611.870229,428.091842 636.021619,402.741305 L615.637829,370.924894 L658.678887,370.920583 C658.678887,370.920583 660.194538,358.570764 648.108079,350.604807 C648.108079,350.604807 664.711352,347.708095 669.998909,336.849737 C664.711352,325.982758 648.112385,323.081736 648.112385,323.081736 C660.194538,315.115779 658.678887,302.761649 658.678887,302.761649 L615.637829,302.76596 L636.021619,270.945238 C611.865924,245.603322 583.176191,294.118931 583.176191,294.118931 C589.970788,276.738661 577.135114,274.561817 577.135114,274.561817 C562.034575,314.395912 531.833497,306.429955 531.833497,306.429955 C552.759821,286.183148 554.482152,270.949549 554.482152,270.949549 L473.700511,309.330977 L473.700511,320.189335 L598.27673,336.845427 L473.700511,353.501518 L473.700511,364.359876 L554.482152,402.745615 C554.482152,402.745615 552.759821,387.507706 531.837802,367.256588 C531.837802,367.256588 562.038881,359.294942 577.135114,399.129037" id="Fill-76" fill="#B3884D"></path>
                        <path d="M123.955318,208.552571 C123.955318,208.552571 116.437342,198.034749 133.660655,190.49554 C133.660655,190.49554 78.7010649,204.729084 79.7301578,169.903886 L116.880843,161.670673 L86.4515554,131.552631 C86.4515554,131.552631 94.2106577,121.758987 108.445725,124.58673 C108.445725,124.58673 98.7748355,110.913561 102.796479,99.5336229 C114.301652,95.5506445 128.110442,105.120138 128.110442,105.120138 C125.259984,91.0331538 135.159083,83.356006 135.159083,83.356006 L165.58837,113.474047 L173.915842,76.7090874 C209.107375,75.6917899 194.725909,130.074102 194.725909,130.074102 C202.342919,113.030057 212.969703,120.470123 212.969703,120.470123 C195.182327,159.200709 222.231539,174.701564 222.231539,174.701564 C221.904296,145.74307 231.57088,133.76396 231.57088,133.76396 L261.268176,217.42806 L253.504768,225.109519 L153.514828,149.717427 L229.702151,248.662543 L221.938742,256.344001 L137.389502,226.963069 C137.389502,226.963069 149.493185,217.389265 178.764204,217.712559 C178.764204,217.712559 163.095296,190.948151 123.955318,208.552571" id="Fill-78" fill="#B3884D"></path>
                        <path d="M120.98688,247.299537 L120.917987,247.282294 C120.930905,247.277984 120.943822,247.269362 120.952434,247.269362 L120.943822,247.256431 L120.961045,247.265052 C144.389056,234.557454 170.861287,263.127996 171.304787,263.610782 L171.369375,263.632335 C171.360763,263.636645 171.352152,263.636645 171.339234,263.645266 L171.347846,263.653887 L171.326317,263.649577 C147.902612,276.352864 121.426075,247.786632 120.98688,247.299537" id="Fill-80" fill="#B3884D"></path>
                        <path d="M107.419216,243.487257 C107.419216,243.487257 102.691417,222.826634 80.8221158,210.545784 C63.7193666,200.941806 62.9012592,197.096766 62.9012592,197.096766 L72.1587896,226.529425 C72.1587896,226.529425 53.4456607,231.792646 47.7361327,246.409832 L107.419216,243.487257 Z" id="Fill-82" fill="#B3884D"></path>
                        <g id="Group-86" transform="translate(261.113988, 485.148514)">
                            <mask id="mask-2" fill="white">
                                <use xlink:href="#path-1"></use>
                            </mask>
                            <g id="Clip-85"></g>
                            <path d="M137.101482,102.976298 C137.101482,102.976298 134.905509,115.675274 117.342037,108.950765 C117.342037,108.950765 166.372501,137.344574 140.75713,161.246755 L108.601206,141.077538 L108.601206,183.661785 C108.601206,183.661785 96.11861,185.161868 88.0667114,173.204311 C88.0667114,173.204311 85.1387483,189.636253 74.1588866,194.8693 C63.1833308,189.636253 60.2553677,173.204311 60.2553677,173.204311 C52.2034692,185.161868 39.7208735,183.661785 39.7208735,183.661785 L39.7208735,141.077538 L7.56494925,161.246755 C-18.0504221,137.344574 30.9800425,108.950765 30.9800425,108.950765 C13.4165696,115.675274 11.2205973,102.976298 11.2205973,102.976298 C51.4714784,88.0358178 43.4238857,58.1462372 43.4238857,58.1462372 C22.9582847,78.8585872 7.56494925,80.5612674 7.56494925,80.5612674 L46.3518488,0.621510782 L57.3274046,0.621510782 L74.1588866,123.895556 L90.9946745,0.621510782 L101.97023,0.621510782 L140.75713,80.5612674 C140.75713,80.5612674 125.363794,78.8585872 104.898193,58.1462372 C104.898193,58.1462372 96.8506007,88.0358178 137.101482,102.976298" id="Fill-84" fill="#B3884D" mask="url(#mask-2)"></path>
                        </g>
                        <path d="M428.010078,562.803587 L428.040219,562.863935 C428.031607,562.859624 428.018689,562.855314 428.005772,562.851003 L428.005772,562.863935 L428.001466,562.846693 C402.355954,555.436801 404.048144,516.714836 404.082591,516.063938 L404.048144,516.00359 C404.061062,516.007901 404.069674,516.012211 404.082591,516.016522 L404.082591,516.00359 L404.091203,516.020833 C429.736715,523.426414 428.040219,562.152689 428.010078,562.803587" id="Fill-87" fill="#B3884D"></path>
                        <path d="M434.878304,574.992622 C434.878304,574.992622 423.454942,592.911714 430.141893,616.891486 C435.373474,635.655452 433.207643,638.944427 433.207643,638.944427 L447.692449,611.654128 C447.692449,611.654128 464.687552,621.025334 479.172358,614.688778 L434.878304,574.992622 Z" id="Fill-89" fill="#B3884D"></path>
                        <path d="M245.163949,562.803587 L245.133808,562.863935 C245.142419,562.859624 245.155337,562.855314 245.168254,562.851003 L245.168254,562.863935 L245.176866,562.846693 C270.818072,555.436801 269.125882,516.714836 269.091435,516.063938 L269.125882,516.00359 C269.112965,516.007901 269.104353,516.012211 269.091435,516.016522 L269.091435,516.00359 L269.082824,516.020833 C243.437312,523.426414 245.133808,562.152689 245.163949,562.803587" id="Fill-91" fill="#B3884D"></path>
                        <path d="M238.295722,574.992622 C238.295722,574.992622 249.719084,592.911714 243.032133,616.891486 C237.800552,635.655452 239.966384,638.944427 239.966384,638.944427 L225.481578,611.654128 C225.481578,611.654128 208.486474,621.025334 194.001669,614.688778 L238.295722,574.992622 Z" id="Fill-93" fill="#B3884D"></path>
                        <path d="M550.503137,471.897708 C550.503137,471.897708 558.021113,482.41553 540.7978,489.954739 C540.7978,489.954739 595.75739,475.721195 594.728297,510.546392 L557.577612,518.779605 L588.006899,548.897647 C588.006899,548.897647 580.247797,558.691291 566.01273,555.863549 C566.01273,555.863549 575.683619,569.536717 571.661976,580.916655 C560.156803,584.899634 546.348013,575.33014 546.348013,575.33014 C549.198471,589.417125 539.299372,597.094272 539.299372,597.094272 L508.870085,566.976231 L500.542613,603.741191 C465.35108,604.758488 479.732546,550.376177 479.732546,550.376177 C472.115536,567.420221 461.488752,559.980155 461.488752,559.980155 C479.276128,521.249569 452.226916,505.748714 452.226916,505.748714 C452.554159,534.707209 442.887575,546.686318 442.887575,546.686318 L413.190279,463.022218 L420.953687,455.34076 L520.943627,530.732851 L444.756304,431.787736 L452.519712,424.106277 L537.068953,453.49152 C537.068953,453.49152 524.96527,463.061013 495.694251,462.737719 C495.694251,462.737719 511.358853,489.502128 550.503137,471.897708" id="Fill-95" fill="#B3884D"></path>
                        <path d="M553.471575,433.150742 L553.540468,433.167984 C553.52755,433.172295 553.514633,433.180916 553.506021,433.180916 L553.514633,433.193848 L553.49741,433.185226 C530.069399,445.892824 503.597168,417.322282 503.153667,416.839497 L503.08908,416.817944 C503.097692,416.813633 503.106303,416.813633 503.119221,416.805012 L503.110609,416.796391 L503.132138,416.800701 C526.555843,404.097414 553.03238,432.663646 553.471575,433.150742" id="Fill-97" fill="#B3884D"></path>
                        <path d="M567.038808,436.96259 C567.038808,436.96259 571.766608,457.623213 593.635909,469.904063 C610.738658,479.508042 611.556765,483.353081 611.556765,483.353081 L602.299235,453.920422 C602.299235,453.920422 621.012364,448.657201 626.726198,434.040015 L567.038808,436.96259 Z" id="Fill-99" fill="#B3884D"></path>
                        <path d="M123.955318,471.897708 C123.955318,471.897708 116.437342,482.41553 133.660655,489.954739 C133.660655,489.954739 78.7010649,475.721195 79.7301578,510.546392 L116.880843,518.779605 L86.4515554,548.897647 C86.4515554,548.897647 94.2106577,558.691291 108.445725,555.863549 C108.445725,555.863549 98.7748355,569.536717 102.796479,580.916655 C114.301652,584.899634 128.110442,575.33014 128.110442,575.33014 C125.259984,589.417125 135.159083,597.094272 135.159083,597.094272 L165.58837,566.976231 L173.915842,603.741191 C209.107375,604.758488 194.725909,550.376177 194.725909,550.376177 C202.342919,567.420221 212.969703,559.980155 212.969703,559.980155 C195.182327,521.249569 222.231539,505.748714 222.231539,505.748714 C221.904296,534.707209 231.57088,546.686318 231.57088,546.686318 L261.268176,463.022218 L253.504768,455.34076 L153.514828,530.732851 L229.702151,431.787736 L221.938742,424.106277 L137.389502,453.49152 C137.389502,453.49152 149.493185,463.061013 178.764204,462.737719 C178.764204,462.737719 163.095296,489.502128 123.955318,471.897708" id="Fill-101" fill="#B3884D"></path>
                        <path d="M120.98688,433.150742 L120.917987,433.167984 C120.930905,433.172295 120.943822,433.180916 120.952434,433.180916 L120.943822,433.193848 L120.961045,433.185226 C144.389056,445.892824 170.861287,417.322282 171.304787,416.839497 L171.369375,416.817944 C171.360763,416.813633 171.352152,416.813633 171.339234,416.805012 L171.347846,416.796391 L171.326317,416.800701 C147.902612,404.097414 121.426075,432.663646 120.98688,433.150742" id="Fill-103" fill="#B3884D"></path>
                        <path d="M107.419216,436.96259 C107.419216,436.96259 102.691417,457.623213 80.8221158,469.904063 C63.7193666,479.508042 62.9012592,483.353081 62.9012592,483.353081 L72.1587896,453.920422 C72.1587896,453.920422 53.4456607,448.657201 47.7361327,434.040015 L107.419216,436.96259 Z" id="Fill-105" fill="#B3884D"></path>
                        <path d="M92.8659476,399.129037 C92.8659476,399.129037 80.0345798,396.947882 86.8248707,379.571923 C86.8248707,379.571923 58.1308323,428.091842 33.9794425,402.741305 L54.3632327,370.924894 L11.322175,370.920583 C11.322175,370.920583 9.8065235,358.570764 21.892983,350.604807 C21.892983,350.604807 5.28970982,347.708095 0.00215291405,336.849737 C5.28970982,325.982758 21.8886771,323.081736 21.8886771,323.081736 C9.8065235,315.115779 11.322175,302.761649 11.322175,302.761649 L54.3632327,302.76596 L33.9794425,270.945238 C58.1351381,245.603322 86.8248707,294.118931 86.8248707,294.118931 C80.030274,276.738661 92.8659476,274.561817 92.8659476,274.561817 C107.966487,314.395912 138.167565,306.429955 138.167565,306.429955 C117.24124,286.183148 115.518909,270.949549 115.518909,270.949549 L196.30055,309.330977 L196.30055,320.189335 L71.7243316,336.845427 L196.30055,353.501518 L196.30055,364.359876 L115.518909,402.745615 C115.518909,402.745615 117.24124,387.507706 138.163259,367.256588 C138.163259,367.256588 107.962181,359.294942 92.8659476,399.129037" id="Fill-107" fill="#B3884D"></path>
                        <path d="M335.000316,427.73665 C286.232506,427.73665 246.558606,388.475862 246.558606,340.223199 C246.558606,291.970536 286.232506,252.71406 335.000316,252.71406 C383.768125,252.71406 423.442025,291.970536 423.442025,340.223199 C423.442025,388.475862 383.768125,427.73665 335.000316,427.73665 M335.000316,298.35882 C311.667033,298.35882 292.686943,317.140029 292.686943,340.223199 C292.686943,363.31068 311.667033,382.091889 335.000316,382.091889 C358.333598,382.091889 377.313688,363.31068 377.313688,340.223199 C377.313688,317.140029 358.333598,298.35882 335.000316,298.35882" id="Fill-109" fill="#B3884D"></path>
                    </g>
                </g>
            </g>
        </g>
    </g>
</svg>