<svg xmlns="http://www.w3.org/2000/svg" width="22" height="18" viewBox="0 0 22 18">
    <path fill="#1A1A1A" fill-rule="nonzero" d="M21.6 2.301A8.848 8.848 0 0 1 19.055 3 4.439 4.439 0 0 0 21.003.547a8.877 8.877 0 0 1-2.814 1.076 4.424 4.424 0 0 0-3.235-1.4c-2.86 0-4.963 2.67-4.317 5.44a12.58 12.58 0 0 1-9.133-4.629 4.437 4.437 0 0 0 1.37 5.917 4.413 4.413 0 0 1-2.006-.555C.82 8.45 2.292 10.37 4.424 10.797a4.442 4.442 0 0 1-2.002.076 4.435 4.435 0 0 0 4.14 3.077A8.91 8.91 0 0 1 0 15.786a12.545 12.545 0 0 0 6.793 1.99c8.228 0 12.877-6.948 12.596-13.18A9.022 9.022 0 0 0 21.6 2.3z"/>
</svg>
