<svg xmlns="http://www.w3.org/2000/svg" width="22" height="16" viewBox="0 0 22 16">
    <path fill="#FFF" fill-rule="nonzero" d="M8.735.508c.981-.012 3.924-.01 4.885.004 1.47.022 2.786.075 3.686.15l.272.021a22.44 22.44 0 0 1 .414.036c.166.014.27.024.458.043l.22.022a2.76 2.76 0 0 1 1.15.379 2.914 2.914 0 0 1 1.19 1.422c.024.035.127.396.163.57l.03.149.022.11.021.122a12.667 12.667 0 0 1 .143 1.052c.089.893.111 1.585.111 3.448 0 1.75-.022 2.418-.107 3.317a16.897 16.897 0 0 1-.134 1.012l-.026.145c-.01.055-.03.16-.045.232l-.033.17a3.71 3.71 0 0 1-.132.46 3.283 3.283 0 0 1-.294.578c-.254.39-.583.7-.985.928-.31.176-.702.3-1.083.34-.39.04-.918.092-1.195.114-.207.016-.634.044-.924.06l-.315.018c-.7.042-1.475.062-3.021.08-2.058.025-5.625.001-6.707-.045a52.953 52.953 0 0 1-1.325-.069 16.67 16.67 0 0 0-.276-.017 12.23 12.23 0 0 1-.25-.019l-.268-.022a15.669 15.669 0 0 1-.397-.036 66.345 66.345 0 0 1-.432-.042l-.215-.022a2.672 2.672 0 0 1-.414-.075l-.128-.034a3.076 3.076 0 0 1-.494-.205l-.1-.057a2.906 2.906 0 0 1-1.325-1.81c-.04-.165-.119-.558-.144-.716l-.019-.127c-.007-.041-.02-.134-.03-.206-.01-.072-.021-.16-.027-.193a3.192 3.192 0 0 1-.017-.144 24.038 24.038 0 0 1-.113-1.503A52.63 52.63 0 0 1 .5 8.036c0-1.582.012-2.087.07-2.905a15.62 15.62 0 0 1 .124-1.183l.037-.241.028-.154.031-.17.024-.123.023-.105c.051-.248.098-.412.168-.587.161-.402.394-.746.705-1.041A2.728 2.728 0 0 1 3.34.784a310.567 310.567 0 0 0 .725-.07l.207-.018A36.627 36.627 0 0 1 6.287.57C6.623.549 7.699.52 8.736.508zm-.56 3.478a.203.203 0 0 0-.045-.02c-.006 0-.008 1.374-.008 3.825 0 2.104.002 3.825.007 3.825a3.22 3.22 0 0 1 .17-.092l.216-.114c.047-.026.16-.084.25-.132.228-.119.398-.207.51-.267l.552-.289.233-.123.233-.122.25-.132.242-.127.492-.258a51.924 51.924 0 0 1 .483-.255l.216-.114.216-.113.224-.119.242-.127.224-.118.225-.118.215-.114.216-.114c.053-.028.154-.08.225-.119l.233-.122.44-.232.216-.114c.082-.045.322-.171.556-.293a.786.786 0 0 0 .145-.086c.001-.006-.007-.016-.017-.02l-.15-.078-.388-.207-.18-.096-.2-.106-.198-.105a19.998 19.998 0 0 0-.181-.096l-.725-.386-.216-.114c-.076-.04-.173-.09-.216-.114l-.216-.113c-.076-.04-.165-.087-.198-.106a10.143 10.143 0 0 0-.199-.105l-.216-.114-.198-.105-.414-.219a19.343 19.343 0 0 0-.19-.1l-.19-.102a19.936 19.936 0 0 0-.225-.118c-.08-.042-.173-.09-.207-.11l-.181-.096-.216-.114a19.214 19.214 0 0 0-.198-.105l-.212-.112a9.126 9.126 0 0 1-.168-.09l-.181-.096-.199-.105-.371-.197-.354-.189a10.143 10.143 0 0 0-.198-.105l-.176-.093z"/>
</svg>
